<?xml version="1.0" standalone="no"?>
<!DOCTYPE svg PUBLIC "-//W3C//DTD SVG 20010904//EN"
 "http://www.w3.org/TR/2001/REC-SVG-20010904/DTD/svg10.dtd">
<svg version="1.0" xmlns="http://www.w3.org/2000/svg"
 width="288.000000pt" height="288.000000pt" viewBox="0 0 288.000000 288.000000"
 preserveAspectRatio="xMidYMid meet">
<metadata>
Created by potrace 1.11, written by Peter Selinger 2001-2013
</metadata>
<g transform="translate(0.000000,288.000000) scale(0.100000,-0.100000)"
fill="#000000" stroke="none">
<path d="M1225 2794 c-627 -98 -1096 -656 -1096 -1304 0 -63 3 -131 6 -150 2
-19 7 -53 10 -75 6 -48 9 -62 30 -140 9 -33 18 -64 19 -70 2 -5 8 -23 14 -38
7 -16 12 -31 12 -35 0 -4 9 -24 20 -45 11 -20 17 -37 13 -37 -5 0 -3 -4 2 -8
6 -4 19 -25 31 -47 31 -59 48 -88 62 -103 6 -7 12 -17 12 -21 0 -7 12 -24 50
-69 6 -7 8 -17 5 -22 -4 -6 -2 -9 3 -8 10 3 63 -48 100 -96 12 -16 22 -27 22
-23 0 6 16 -8 105 -89 13 -12 29 -24 37 -27 44 -21 93 -56 90 -67 -1 -6 1 -9
6 -6 12 7 72 -16 72 -27 0 -4 -6 -5 -12 -1 -7 4 -10 3 -6 -1 5 -5 20 -10 35
-11 14 -2 29 -8 33 -14 4 -7 10 -11 14 -10 13 4 96 -25 96 -33 0 -4 5 -5 10
-2 6 3 10 1 10 -5 0 -6 4 -9 9 -6 5 4 22 1 38 -5 15 -6 39 -12 53 -14 52 -5
90 -17 90 -28 0 -7 4 -6 9 2 8 13 12 13 27 0 10 -8 15 -9 11 -2 -5 7 0 9 13 6
11 -3 17 -10 13 -17 -5 -8 -3 -8 8 0 19 14 94 10 114 -6 13 -11 15 -10 10 1
-4 11 6 14 42 15 42 0 100 6 193 19 14 2 61 15 104 29 44 14 83 23 88 20 4 -3
8 -1 8 4 0 6 7 13 16 16 12 5 14 3 8 -7 -5 -7 -2 -5 7 5 9 9 28 20 43 24 14 3
29 10 32 15 3 5 10 7 15 4 5 -4 9 -2 9 3 0 6 14 15 30 21 17 5 44 20 60 31 17
12 35 18 41 14 7 -4 9 -3 6 3 -8 12 31 46 44 38 5 -4 8 -2 7 3 -5 16 83 81
101 75 11 -3 12 -2 4 4 -9 7 -3 18 22 42 19 18 35 37 35 43 0 6 7 5 17 -3 10
-9 14 -9 10 -2 -9 15 13 53 31 53 7 0 10 5 7 10 -3 6 -1 10 4 10 6 0 11 6 11
13 1 23 47 70 61 62 11 -6 11 -5 2 5 -10 10 -8 19 8 42 11 15 25 26 30 23 5
-4 6 2 2 11 -5 13 -3 15 7 9 10 -6 12 -4 7 8 -4 10 -1 17 5 17 6 0 9 3 5 6 -8
9 39 101 55 107 8 4 9 6 1 6 -13 1 6 51 20 51 5 0 6 4 3 8 -2 4 6 41 19 81 13
40 26 84 29 99 3 15 7 38 11 52 6 27 17 136 19 185 1 17 8 36 16 43 13 11 13
11 0 7 -12 -4 -15 5 -15 45 0 27 5 50 10 50 6 0 5 4 -1 8 -7 4 -15 39 -18 77
-6 67 -13 110 -16 110 -1 0 -4 14 -6 30 -3 17 -9 42 -15 57 -6 15 -9 35 -5 43
3 9 2 14 -3 11 -11 -7 -52 114 -44 128 3 6 3 8 -2 4 -10 -9 -66 103 -58 116 4
5 1 6 -5 2 -7 -4 -12 -2 -12 3 0 6 0 13 0 16 0 3 -8 13 -17 23 -24 26 -57 85
-54 97 1 6 0 7 -4 3 -4 -4 -24 14 -45 40 -164 209 -408 369 -665 438 -149 40
-368 52 -520 28z"/>
<path d="M2693 1183 c4 -3 1 -13 -6 -22 -11 -14 -10 -14 5 -2 16 12 16 31 1
31 -4 0 -3 -3 0 -7z"/>
<path d="M2650 1059 c0 -5 5 -7 10 -4 6 3 10 8 10 11 0 2 -4 4 -10 4 -5 0 -10
-5 -10 -11z"/>
<path d="M2676 1033 c-6 -14 -5 -15 5 -6 7 7 10 15 7 18 -3 3 -9 -2 -12 -12z"/>
<path d="M2636 933 c-6 -14 -5 -15 5 -6 7 7 10 15 7 18 -3 3 -9 -2 -12 -12z"/>
<path d="M2507 739 c7 -7 15 -10 18 -7 3 3 -2 9 -12 12 -14 6 -15 5 -6 -5z"/>
<path d="M1970 259 c0 -5 5 -7 10 -4 6 3 10 8 10 11 0 2 -4 4 -10 4 -5 0 -10
-5 -10 -11z"/>
<path d="M1910 239 c0 -5 5 -7 10 -4 6 3 10 8 10 11 0 2 -4 4 -10 4 -5 0 -10
-5 -10 -11z"/>
<path d="M1810 180 c0 -5 5 -10 11 -10 5 0 7 5 4 10 -3 6 -8 10 -11 10 -2 0
-4 -4 -4 -10z"/>
<path d="M1520 140 c-9 -6 -10 -10 -3 -10 6 0 15 5 18 10 8 12 4 12 -15 0z"/>
</g>
</svg>
